<svg width="46" height="50" viewBox="0 0 46 50" fill="none" xmlns="http://www.w3.org/2000/svg">
<path fill-rule="evenodd" clip-rule="evenodd" d="M41.2839 41.6091L24.0788 49.7617V34.4527L24.1609 34.4079L28.6094 32.3L43.6554 25.1704L45.4089 24.3394V34.6051C45.4089 37.3825 43.552 40.5343 41.2839 41.609V41.6091ZM4.12496 41.6091L21.33 49.7617V34.4287L21.1092 34.3032L0 24.3007V34.6053C0 37.3826 1.85631 40.5343 4.12511 41.6091H4.12496Z" fill="#001345"/>
<path fill-rule="evenodd" clip-rule="evenodd" d="M41.2841 8.15268L24.0789 0V15.8155L24.9501 16.2912L28.6532 18.0618L31.7833 19.545L40.0033 23.44L43.6557 25.1707L45.4092 26.0016V15.1565C45.4092 12.3794 43.5523 9.22766 41.2843 8.15283L41.2841 8.15268ZM4.12511 8.15268L21.3301 0V15.8155L20.591 16.2191L18.3802 17.2665L16.2208 18.2897L10.3626 21.0657L1.49171 25.2693L0 25.9761V15.1564C0 12.3792 1.85631 9.22766 4.12511 8.15268Z" fill="#001A60"/>
</svg>
